<svg xmlns="http://www.w3.org/2000/svg" viewBox="0 0 100 100" fill="#d4a850">
  <!-- Body -->
  <path d="M30 55 Q25 45 30 35 Q35 25 50 20 Q65 25 70 35 Q75 45 70 55 Q65 70 50 75 Q35 70 30 55" />
  <!-- Head -->
  <ellipse cx="50" cy="25" rx="18" ry="15" />
  <!-- Face details -->
  <ellipse cx="50" cy="28" rx="10" ry="8" fill="#1a1a1a" />
  <!-- Brow ridge -->
  <path d="M35 20 Q50 15 65 20" stroke-width="4" stroke="#d4a850" fill="none" />
  <!-- Arms -->
  <path d="M25 45 Q15 50 12 65 Q10 75 15 80" stroke-width="8" stroke="#d4a850" fill="none" stroke-linecap="round" />
  <path d="M75 45 Q85 50 88 65 Q90 75 85 80" stroke-width="8" stroke="#d4a850" fill="none" stroke-linecap="round" />
</svg>

